<?xml version="1.0" encoding="UTF-8"?>
<!DOCTYPE svg PUBLIC "-//W3C//DTD SVG 1.0//EN" "http://www.w3.org/TR/2001/REC-SVG-20010904/DTD/svg10.dtd">
<!-- Creator: CorelDRAW -->
<svg xmlns="http://www.w3.org/2000/svg" xml:space="preserve" width="86.6988mm" height="86.6988mm" version="1.0" style="shape-rendering:geometricPrecision; text-rendering:geometricPrecision; image-rendering:optimizeQuality; fill-rule:evenodd; clip-rule:evenodd"
viewBox="0 0 8917.26 8917.26"
 xmlns:xlink="http://www.w3.org/1999/xlink"
 xmlns:xodm="http://www.corel.com/coreldraw/odm/2003">
 <defs>
  <style type="text/css">
   <![CDATA[
    .fil0 {fill:none}
    .fil1 {fill:#F8F1E4}
   ]]>
  </style>
 </defs>
 <g id="Camada_x0020_1">
  <metadata id="CorelCorpID_0Corel-Layer"/>
    <!-- background rect removed to keep SVG transparent -->
  <path class="fil1" d="M5446.97 3662.71c-38.08,240.93 -29.96,420.44 -193.45,693.42 -31.81,53.11 -53.63,86.38 -85.53,134.97 -222.61,339.18 -511.71,595.27 -603.59,980.81 -31.16,130.77 -37.21,270.98 -9.79,403.33 39.09,188.8 105.99,217.02 153.24,284.12 -515.74,37.16 -737.17,-340.04 -566.8,-848.21 65.65,-195.82 169.47,-348.01 270.45,-496.68 351.24,-517.14 678.33,-1051.49 490.72,-1738.38 -68.68,-251.44 -144.96,-333.82 -271.72,-513.89 -45.16,-64.15 -281.31,-270.08 -356.3,-322.45 -53.82,-37.58 -22.29,-22.83 -84.81,-40.32 85.93,551.02 -110.1,1039.75 -410.84,1375.75l-382.73 416.19c-81.75,101.66 -100.72,102.74 -188.03,226.85 -29.8,42.38 -63.14,76.34 -89.64,116.65 -396.17,602.71 -417.28,1369.74 99.39,1918.19 104.27,110.7 219.14,183.67 358.39,264.52 373.56,216.93 876.54,252.24 1322.64,131.67 199.79,-54.01 406.62,-166.11 539.48,-260.86l209.75 -190.2c59.24,-69.51 131.64,-143.43 186.47,-227.15 363.59,-555.34 335.09,-1264.01 -35.44,-1854.07 -45.08,-71.8 -290.53,-419.11 -351.86,-454.28z"/>
 </g>
</svg>
