<?xml version="1.0" encoding="UTF-8"?>
<!DOCTYPE svg PUBLIC "-//W3C//DTD SVG 1.0//EN" "http://www.w3.org/TR/2001/REC-SVG-20010904/DTD/svg10.dtd">
<!-- Creator: CorelDRAW -->
<svg xmlns="http://www.w3.org/2000/svg" xml:space="preserve" width="173.397mm" height="173.397mm" version="1.0" style="shape-rendering:geometricPrecision; text-rendering:geometricPrecision; image-rendering:optimizeQuality; fill-rule:evenodd; clip-rule:evenodd"
viewBox="0 0 17670.97 17670.97"
 xmlns:xlink="http://www.w3.org/1999/xlink"
 xmlns:xodm="http://www.corel.com/coreldraw/odm/2003">
 <defs>
  <style type="text/css">
   <![CDATA[
    .fil0 {fill:none}
    .fil2 {fill:#B24E2E}
    .fil1 {fill:#B24E2E}
   ]]>
  </style>
 </defs>
 <g id="Camada_x0020_1">
  <metadata id="CorelCorpID_0Corel-Layer"/>
  <rect class="fil0" x="0.01" y="0.01" width="17670.96" height="17670.96"/>
  <g id="_2259942959440">
   <path class="fil1" d="M10411.22 6218.68c-60.7,384.14 -47.76,670.33 -308.41,1105.54 -50.73,84.7 -85.5,137.72 -136.37,215.21 -354.92,540.76 -815.84,949.06 -962.34,1563.73 -49.69,208.49 -59.33,432.04 -15.62,643.05 62.34,301 169,346.01 244.33,452.98 -822.26,59.25 -1175.3,-542.14 -903.68,-1352.33 104.67,-312.21 270.18,-554.86 431.19,-791.88 560.01,-824.49 1081.48,-1676.42 782.38,-2771.57 -109.48,-400.86 -231.11,-532.22 -433.21,-819.3 -72.01,-102.29 -448.51,-430.6 -568.07,-514.1 -85.81,-59.92 -35.55,-36.41 -135.22,-64.28 137.01,878.52 -175.54,1657.73 -655.02,2193.4l-610.2 663.55c-130.33,162.09 -160.58,163.8 -299.77,361.69 -47.51,67.56 -100.67,121.7 -142.92,185.98 -631.64,960.92 -665.28,2183.82 158.46,3058.25 166.26,176.49 349.39,292.82 571.4,421.74 595.58,345.85 1397.49,402.16 2108.75,209.91 318.54,-86.09 648.29,-264.81 860.1,-415.9l334.41 -303.23c94.46,-110.81 209.89,-228.66 297.3,-362.16 579.7,-885.38 534.25,-2015.24 -56.49,-2956.02 -71.88,-114.47 -463.22,-668.18 -561.01,-724.28z"/>
   <g>
    <path class="fil2" d="M12592.11 11671.75c-753.94,167.73 -1089.43,1024.57 -644.93,1665.6 647.73,934.09 2263.53,290.17 1957.08,-857.92 -170.02,-636.94 -759.68,-930.58 -1312.16,-807.68zm112.6 423.42c-835.49,240.26 -457.03,1414.25 254.11,1242.23 517.44,-125.17 670.08,-715.38 278.38,-1099.64 -135.14,-132.58 -333.29,-199.89 -532.49,-142.59z"/>
    <path class="fil2" d="M3728.46 13745.91c530.63,-35.85 1800.01,198.02 1823.34,-1004.73 8.55,-441.49 -242.57,-790.17 -513.16,-929.57 -359.88,-185.43 -878.37,-85.54 -1301.39,-117.6l-8.78 2051.91zm467.13 -385.4c263.87,-11.34 395.46,5.69 603.88,-118.56 352.07,-209.88 604.14,-1125 -606.08,-1155.45l2.2 1274.01z"/>
    <path class="fil2" d="M5866.23 13744.7l445.4 -5.91 16.62 -729.81 275.03 -0.25c36.92,109.79 357.08,650.56 427.64,738.53l505.47 -11.27c-7.5,-84.9 -398.66,-707.57 -453.32,-763.5 0.15,-0.17 743.64,-472.08 189.55,-1069.48 -287.42,-309.87 -937.11,-172.32 -1399.17,-207.72l-7.23 2049.41zm461.5 -1092.19l542 -22.69c109.9,-127.01 201.53,-305.79 60.99,-457.35 -131.15,-141.4 -416.09,-85.68 -604.43,-92.46l1.44 572.5z"/>
    <path class="fil2" d="M8795.61 13741.39l1269.88 -1.31 18.14 -391.11 -814.26 7.19 -7.01 -1663.13 -458.48 8.17 -8.26 2040.19z"/>
    <path class="fil2" d="M10405.12 13741.96l1262.33 -3.27 15.14 -377.75 -810.54 -5.02 -6.16 -1662.53 -452.85 7.66 -7.93 2040.92z"/>
    <path class="fil2" d="M7928.32 13746.71l454.92 -5.16 10.32 -2048.79 -457.25 8.09 -7.99 2045.86z"/>
   </g>
  </g>
 </g>
</svg>
